<svg width="22" height="23" viewBox="0 0 22 23" fill="none" xmlns="http://www.w3.org/2000/svg">
<path fill-rule="evenodd" clip-rule="evenodd" d="M8.05319 4.54102C8.35921 4.54102 8.62815 4.74388 8.71222 5.03813L9.45537 7.63916C9.78064 8.77762 10.6706 9.66754 11.809 9.99281L14.41 10.736C14.7042 10.82 14.9072 11.089 14.9072 11.395C14.9072 11.701 14.7042 11.9699 14.41 12.054L11.809 12.7971C10.6706 13.1224 9.78064 14.0124 9.45537 15.1508L8.71222 17.7518C8.62815 18.0461 8.35921 18.249 8.05319 18.249C7.74717 18.249 7.47823 18.0461 7.39416 17.7518L6.65101 15.1508C6.32573 14.0124 5.43582 13.1224 4.29735 12.7971L1.69633 12.054C1.40208 11.9699 1.19922 11.701 1.19922 11.395C1.19922 11.089 1.40208 10.82 1.69633 10.736L4.29735 9.99281C5.43582 9.66754 6.32574 8.77762 6.65102 7.63914L7.39416 5.03813C7.47823 4.74388 7.74717 4.54102 8.05319 4.54102Z" fill="#30B33D"/>
<path fill-rule="evenodd" clip-rule="evenodd" d="M16.2783 1.79883C16.5928 1.79883 16.867 2.01288 16.9433 2.318L17.1798 3.26426C17.3948 4.12375 18.0658 4.79484 18.9252 5.0097L19.8716 5.24627C20.1766 5.32256 20.3907 5.5967 20.3907 5.91121C20.3907 6.22571 20.1766 6.49986 19.8716 6.57614L18.9252 6.81271C18.0658 7.02758 17.3948 7.69867 17.1798 8.55815L16.9433 9.50443C16.867 9.80955 16.5928 10.0236 16.2783 10.0236C15.9638 10.0236 15.6897 9.80955 15.6135 9.50443L15.3768 8.55815C15.162 7.69867 14.4909 7.02758 13.6314 6.81271L12.6851 6.57614C12.38 6.49986 12.166 6.22571 12.166 5.91121C12.166 5.5967 12.38 5.32256 12.6851 5.24627L13.6314 5.0097C14.4909 4.79484 15.162 4.12375 15.3768 3.26426L15.6135 2.318C15.6897 2.01288 15.9638 1.79883 16.2783 1.79883Z" fill="#30B33D"/>
<path fill-rule="evenodd" clip-rule="evenodd" d="M14.9075 14.1367C15.2024 14.1367 15.4644 14.3255 15.5577 14.6053L15.918 15.6863C16.0544 16.0955 16.3756 16.4167 16.785 16.5532L17.8658 16.9136C18.1456 17.0067 18.3344 17.2687 18.3344 17.5638C18.3344 17.8587 18.1456 18.1207 17.8658 18.214L16.785 18.5742C16.3756 18.7107 16.0544 19.0319 15.918 19.4411L15.5577 20.5221C15.4644 20.8019 15.2024 20.9907 14.9075 20.9907C14.6124 20.9907 14.3505 20.8019 14.2573 20.5221L13.897 19.4411C13.7605 19.0319 13.4392 18.7107 13.03 18.5742L11.9491 18.214C11.6692 18.1207 11.4805 17.8587 11.4805 17.5638C11.4805 17.2687 11.6692 17.0067 11.9491 16.9136L13.03 16.5532C13.4392 16.4167 13.7605 16.0955 13.897 15.6863L14.2573 14.6053C14.3505 14.3255 14.6124 14.1367 14.9075 14.1367Z" fill="#30B33D"/>
</svg>
