<svg width="13" height="16" viewBox="0 0 13 16" fill="none" xmlns="http://www.w3.org/2000/svg">
<path opacity="0.4" d="M11.2486 5.62356C11.2486 5.67462 10.8884 10.7368 10.6826 12.8672C10.5538 14.1746 9.79524 14.9676 8.65741 14.9901C7.78316 15.0119 6.92733 15.0194 6.08529 15.0194C5.19133 15.0194 4.31709 15.0119 3.46848 14.9901C2.36877 14.9608 1.60956 14.1521 1.4873 12.8672C1.27564 10.7293 0.922002 5.67462 0.915428 5.62356C0.908855 5.46962 0.953553 5.32318 1.04426 5.20453C1.13366 5.09489 1.2625 5.02881 1.39791 5.02881H10.7727C10.9074 5.02881 11.0297 5.09489 11.1263 5.20453C11.2164 5.32318 11.2617 5.46962 11.2486 5.62356Z" fill="#FF0000"/>
<path d="M12.1658 2.98652C12.1658 2.67788 11.9469 2.43607 11.684 2.43607H9.71329C9.31233 2.43607 8.96394 2.11917 8.87455 1.67236L8.76412 1.12492C8.60965 0.463335 8.07656 0 7.47839 0H4.68804C4.0833 0 3.55547 0.463335 3.39509 1.16096L3.29188 1.67311C3.20183 2.11917 2.85345 2.43607 2.45314 2.43607H0.482477C0.218889 2.43607 0 2.67788 0 2.98652V3.27188C0 3.57301 0.218889 3.82232 0.482477 3.82232H11.684C11.9469 3.82232 12.1658 3.57301 12.1658 3.27188V2.98652Z" fill="#FF0000"/>
</svg>
