<svg width="16" height="16" viewBox="0 0 16 16" fill="none" xmlns="http://www.w3.org/2000/svg">
<path opacity="0.4" d="M15.1044 14.1809H10.0428C9.54899 14.1809 9.14734 14.5889 9.14734 15.0906C9.14734 15.5932 9.54899 16.0002 10.0428 16.0002H15.1044C15.5983 16.0002 15.9999 15.5932 15.9999 15.0906C15.9999 14.5889 15.5983 14.1809 15.1044 14.1809Z" fill="#30B33D"/>
<path d="M6.49692 3.46993L11.2933 7.34557C11.409 7.43826 11.4287 7.60834 11.3384 7.72683L5.65223 15.136C5.29479 15.5937 4.76803 15.8527 4.20364 15.8622L1.09952 15.9005C0.93397 15.9024 0.789111 15.7877 0.751486 15.6234L0.0460043 12.5561C-0.0762791 11.9923 0.0460043 11.4095 0.403448 10.9604L6.11785 3.51579C6.21003 3.39635 6.38029 3.37533 6.49692 3.46993Z" fill="#30B33D"/>
<path opacity="0.4" d="M13.4408 5.03596L12.5162 6.19024C12.423 6.30777 12.2556 6.32689 12.1399 6.23324C11.0158 5.32357 8.13748 2.9892 7.33888 2.34231C7.22224 2.24675 7.20625 2.07667 7.30031 1.95818L8.19204 0.85072C9.00099 -0.190812 10.412 -0.286366 11.5501 0.621392L12.8576 1.66292C13.3938 2.08336 13.7512 2.63757 13.8735 3.22044C14.0146 3.86161 13.8641 4.4913 13.4408 5.03596Z" fill="#30B33D"/>
</svg>
