<svg width="42" height="40" viewBox="0 0 42 40" fill="none" xmlns="http://www.w3.org/2000/svg">
<path d="M2.08333 35.0122H4.16667V8.67888C4.16673 8.02292 4.3732 7.38361 4.75684 6.85153C5.14048 6.31945 5.68182 5.92158 6.30417 5.71429L22.9708 0.160128C23.4405 0.00368413 23.9407 -0.0389231 24.4301 0.0358152C24.9195 0.110553 25.3841 0.300499 25.7857 0.590003C26.1873 0.879508 26.5144 1.26029 26.74 1.70097C26.9656 2.14166 27.0833 2.62964 27.0833 3.12471V35.0122H29.1667V16.2414C29.1668 16.0873 29.201 15.9352 29.267 15.796C29.3329 15.6568 29.429 15.5339 29.5481 15.4363C29.6673 15.3386 29.8066 15.2687 29.9561 15.2313C30.1056 15.194 30.2614 15.1904 30.4125 15.2205L34.9875 16.1372C35.6957 16.2788 36.3329 16.6612 36.791 17.2195C37.249 17.7778 37.4996 18.4775 37.5 19.1997V35.0122H39.5833C40.1359 35.0122 40.6658 35.2317 41.0565 35.6224C41.4472 36.0131 41.6667 36.543 41.6667 37.0955C41.6667 37.6481 41.4472 38.178 41.0565 38.5687C40.6658 38.9594 40.1359 39.1789 39.5833 39.1789H2.08333C1.5308 39.1789 1.00089 38.9594 0.610194 38.5687C0.219493 38.178 0 37.6481 0 37.0955C0 36.543 0.219493 36.0131 0.610194 35.6224C1.00089 35.2317 1.5308 35.0122 2.08333 35.0122Z" fill="#30B33D"/>
</svg>
