<svg width="40" height="37" viewBox="0 0 40 37" fill="none" xmlns="http://www.w3.org/2000/svg">
<path fill-rule="evenodd" clip-rule="evenodd" d="M1.37043 33.3939C1.00697 33.3939 0.658396 33.5383 0.40139 33.7953C0.144384 34.0523 0 34.4009 0 34.7643C0 35.1278 0.144384 35.4764 0.40139 35.7334C0.658396 35.9904 1.00697 36.1348 1.37043 36.1348H37.9153C38.2788 36.1348 38.6273 35.9904 38.8843 35.7334C39.1413 35.4764 39.2857 35.1278 39.2857 34.7643C39.2857 34.4009 39.1413 34.0523 38.8843 33.7953C38.6273 33.5383 38.2788 33.3939 37.9153 33.3939H36.088V8.76631C36.088 6.31781 36.088 5.09173 35.4375 4.15252C34.787 3.21332 33.6395 2.78209 31.3445 1.92329C26.8586 0.240397 24.6166 -0.600134 23.0434 0.488902C21.4701 1.58159 21.4701 3.97528 21.4701 8.76631V13.751H21.6346C23.2151 13.751 24.666 13.751 25.8445 13.91C27.1437 14.0836 28.5178 14.4947 29.6452 15.624C30.7763 16.7532 31.1874 18.1273 31.3628 19.4246C31.5199 20.605 31.5199 22.0558 31.5199 23.6382V33.3939H28.7791V23.8009C28.7791 20.3547 28.8578 20.938 28.523 20.6032C27.4523 19.5324 23.2143 17.0257 23.2143 17.0257L20.0893 14.9424L16.8911 17.0257L11.2958 20.6032C10.225 21.674 10.5066 20.3547 10.5066 23.8009V33.3939H7.76578V23.6364C7.76578 22.0558 7.76578 20.605 7.92475 19.4264C8.09834 18.1273 8.50947 16.7532 9.63871 15.6258C10.7679 14.4947 12.142 14.0836 13.4394 13.9082C14.6198 13.751 16.0706 13.751 17.653 13.751H17.7846C17.7115 12.0407 17.4831 10.9919 16.7449 10.2537C15.6741 9.18292 13.9528 9.18292 10.5066 9.18292C7.06047 9.18292 5.3392 9.18292 4.26844 10.2537C3.19767 11.3245 3.19767 13.0457 3.19767 16.4919V33.3939H1.37043ZM14.6179 21.9736C14.6179 21.6102 14.7623 21.2616 15.0193 21.0046C15.2763 20.7476 15.6249 20.6032 15.9884 20.6032H23.2973C23.6608 20.6032 24.0094 20.7476 24.2664 21.0046C24.5234 21.2616 24.6678 21.6102 24.6678 21.9736C24.6678 22.3371 24.5234 22.6857 24.2664 22.9427C24.0094 23.1997 23.6608 23.3441 23.2973 23.3441H15.9884C15.6249 23.3441 15.2763 23.1997 15.0193 22.9427C14.7623 22.6857 14.6179 22.3371 14.6179 21.9736ZM14.6179 27.4554C14.6179 27.0919 14.7623 26.7433 15.0193 26.4863C15.2763 26.2293 15.6249 26.0849 15.9884 26.0849H23.2973C23.6608 26.0849 24.0094 26.2293 24.2664 26.4863C24.5234 26.7433 24.6678 27.0919 24.6678 27.4554C24.6678 27.8188 24.5234 28.1674 24.2664 28.4244C24.0094 28.6814 23.6608 28.8258 23.2973 28.8258H15.9884C15.6249 28.8258 15.2763 28.6814 15.0193 28.4244C14.7623 28.1674 14.6179 27.8188 14.6179 27.4554Z" fill="#30B33D"/>
</svg>
