<svg width="37" height="44" viewBox="0 0 37 44" fill="none" xmlns="http://www.w3.org/2000/svg">
<path d="M18.3926 8.59375C26.9952 8.59375 33.9688 15.5674 33.9688 24.1699V35.5469C33.9688 35.9613 33.8042 36.3587 33.5112 36.6517C33.2181 36.9448 32.8207 37.1094 32.4063 37.1094H4.37897C3.96457 37.1094 3.56714 36.9448 3.27412 36.6517C2.98109 36.3587 2.81647 35.9613 2.81647 35.5469V24.1699C2.81647 15.5674 9.7901 8.59375 18.3926 8.59375ZM17.0255 0H19.7598C19.8634 0 19.9628 0.0411551 20.036 0.114411C20.1093 0.187668 20.1505 0.287025 20.1505 0.390625V5.07812C20.1505 5.18173 20.1093 5.28108 20.036 5.35434C19.9628 5.4276 19.8634 5.46875 19.7598 5.46875H17.0255C16.9219 5.46875 16.8225 5.4276 16.7492 5.35434C16.676 5.28108 16.6348 5.18173 16.6348 5.07812V0.390625C16.6348 0.287025 16.676 0.187668 16.7492 0.114411C16.8225 0.0411551 16.9219 0 17.0255 0ZM2.04743 6.03809C2.0837 6.00177 2.12679 5.97295 2.17421 5.9533C2.22163 5.93364 2.27246 5.92352 2.32379 5.92352C2.37513 5.92352 2.42596 5.93364 2.47338 5.9533C2.5208 5.97295 2.56388 6.00177 2.60016 6.03809L5.91461 9.35254C5.98782 9.42579 6.02893 9.52511 6.02893 9.62866C6.02893 9.73222 5.98782 9.83154 5.91461 9.90479L3.98102 11.8384C3.90777 11.9116 3.80845 11.9527 3.7049 11.9527C3.60134 11.9527 3.50202 11.9116 3.42877 11.8384L0.114321 8.52393C0.0411199 8.45068 0 8.35136 0 8.2478C0 8.14425 0.0411199 8.04493 0.114321 7.97168L2.04791 6.03809H2.04743ZM34.7427 6.03809L36.6763 7.97168C36.7494 8.04491 36.7904 8.14412 36.7904 8.24756C36.7904 8.351 36.7494 8.45021 36.6763 8.52344L33.3619 11.8389C33.3256 11.8752 33.2825 11.904 33.2351 11.9237C33.1877 11.9433 33.1368 11.9534 33.0855 11.9534C33.0342 11.9534 32.9833 11.9433 32.9359 11.9237C32.8885 11.904 32.8454 11.8752 32.8091 11.8389L30.8756 9.90527C30.8392 9.86899 30.8104 9.82591 30.7908 9.77849C30.7711 9.73107 30.761 9.68024 30.761 9.62891C30.761 9.57757 30.7711 9.52674 30.7908 9.47932C30.8104 9.4319 30.8392 9.38882 30.8756 9.35254L34.1905 6.03809C34.2637 5.96489 34.3631 5.92377 34.4666 5.92377C34.5702 5.92377 34.6695 5.96489 34.7427 6.03809ZM2.76764 40.2344H34.0176C34.432 40.2344 34.8295 40.399 35.1225 40.692C35.4155 40.985 35.5801 41.3825 35.5801 41.7969V42.9688C35.5801 43.0723 35.539 43.1717 35.4657 43.245C35.3925 43.3182 35.2931 43.3594 35.1895 43.3594H1.59577C1.49217 43.3594 1.39281 43.3182 1.31955 43.245C1.2463 43.1717 1.20514 43.0723 1.20514 42.9688V41.7969C1.20514 41.3825 1.36976 40.985 1.66279 40.692C1.95581 40.399 2.35324 40.2344 2.76764 40.2344ZM9.9942 24.7559V37.1094H13.1192V24.7559H9.9942Z" fill="#30B33D"/>
</svg>
