<svg width="50" height="50" viewBox="0 0 50 50" fill="none" xmlns="http://www.w3.org/2000/svg">
<path d="M33.1882 38.625C32.9802 38.1146 32.5784 37.7074 32.0707 37.4927C31.5631 37.2779 30.9911 37.273 30.4799 37.4792C26.9696 38.8851 23.0527 38.8851 19.5424 37.4792C19.2893 37.3752 19.0183 37.3221 18.7447 37.3229C18.4711 37.3237 18.2003 37.3784 17.9479 37.4838C17.6954 37.5892 17.4662 37.7434 17.2733 37.9374C17.0804 38.1314 16.9276 38.3615 16.8236 38.6146C16.7197 38.8676 16.6666 39.1387 16.6674 39.4123C16.6682 39.6859 16.7228 39.9566 16.8283 40.2091C16.9337 40.4616 17.0878 40.6908 17.2819 40.8837C17.4759 41.0766 17.706 41.2294 17.9591 41.3333C22.4752 43.1633 27.5263 43.1633 32.0424 41.3333C32.5528 41.1253 32.96 40.7235 33.1747 40.2158C33.3895 39.7082 33.3944 39.1362 33.1882 38.625ZM33.2091 11.8958C35.1746 13.2343 36.783 15.0331 37.8942 17.1356C39.0053 19.238 39.5855 21.5803 39.5841 23.9583C39.5793 24.5708 39.5445 25.1826 39.4799 25.7917C39.4471 26.0653 39.4684 26.3426 39.5428 26.608C39.6172 26.8733 39.7431 27.1214 39.9133 27.338C40.0836 27.5547 40.2948 27.7357 40.535 27.8707C40.7752 28.0058 41.0396 28.0922 41.3132 28.125C41.5868 28.1578 41.8642 28.1365 42.1295 28.0621C42.3948 27.9877 42.6429 27.8618 42.8596 27.6916C43.0763 27.5213 43.2573 27.3101 43.3923 27.0699C43.5273 26.8297 43.6137 26.5653 43.6466 26.2917C43.7358 25.5173 43.7706 24.7376 43.7507 23.9583C43.7521 20.9032 43.0068 17.894 41.5799 15.1926C40.1529 12.4912 38.0875 10.1794 35.5632 8.45833C35.3377 8.29976 35.0828 8.18754 34.8136 8.12818C34.5443 8.06882 34.2659 8.06351 33.9946 8.11254C33.7233 8.16158 33.4644 8.26399 33.2329 8.41384C33.0014 8.56369 32.802 8.758 32.6462 8.98549C32.4904 9.21299 32.3813 9.46916 32.3253 9.73913C32.2692 10.0091 32.2673 10.2875 32.3197 10.5582C32.372 10.829 32.4776 11.0866 32.6303 11.3162C32.7829 11.5458 32.9797 11.7428 33.2091 11.8958ZM8.70906 28.1042C9.25542 28.0364 9.75276 27.7552 10.0924 27.3218C10.432 26.8885 10.5863 26.3384 10.5216 25.7917C10.4917 25.1809 10.4917 24.5691 10.5216 23.9583C10.5086 21.5896 11.0728 19.2534 12.1654 17.1516C13.258 15.0499 14.8461 13.246 16.7924 11.8958C17.0218 11.7428 17.2185 11.5458 17.3712 11.3162C17.5239 11.0866 17.6294 10.829 17.6818 10.5582C17.7342 10.2875 17.7322 10.0091 17.6762 9.73913C17.6201 9.46916 17.511 9.21299 17.3552 8.98549C17.1994 8.758 17 8.56369 16.7686 8.41384C16.5371 8.26399 16.2782 8.16158 16.0069 8.11254C15.7355 8.06351 15.4571 8.06882 15.1879 8.12818C14.9186 8.18754 14.6638 8.29976 14.4382 8.45833C11.914 10.1794 9.84853 12.4912 8.42158 15.1926C6.99462 17.894 6.24939 20.9032 6.25073 23.9583C6.24466 24.7386 6.29339 25.5183 6.39656 26.2917C6.46431 26.838 6.74557 27.3354 7.17889 27.675C7.6122 28.0146 8.16233 28.1689 8.70906 28.1042ZM32.6466 19.7917C32.7257 19.7941 32.8044 19.7785 32.8766 19.746C32.9488 19.7136 33.0126 19.665 33.0632 19.6042C33.1097 19.5423 33.143 19.4716 33.1609 19.3963C33.1789 19.321 33.1811 19.2428 33.1674 19.1667C32.7465 17.2943 31.7013 15.6208 30.2037 14.4209C28.706 13.221 26.8448 12.566 24.9257 12.5636C23.0067 12.5612 21.1438 13.2114 19.6431 14.4076C18.1424 15.6037 17.0931 17.2746 16.6674 19.1458C16.6324 19.2172 16.6143 19.2956 16.6143 19.375C16.6143 19.4544 16.6324 19.5328 16.6674 19.6042C16.77 19.7157 16.9119 19.783 17.0632 19.7917H32.6466ZM19.7924 5.20833C19.7924 6.58967 20.3411 7.91443 21.3179 8.89118C22.2946 9.86793 23.6194 10.4167 25.0007 10.4167C26.3821 10.4167 27.7068 9.86793 28.6836 8.89118C29.6603 7.91443 30.2091 6.58967 30.2091 5.20833C30.2091 3.827 29.6603 2.50224 28.6836 1.52549C27.7068 0.548733 26.3821 0 25.0007 0C23.6194 0 22.2946 0.548733 21.3179 1.52549C20.3411 2.50224 19.7924 3.827 19.7924 5.20833ZM41.6674 42.7083C39.7239 42.693 37.8343 43.3474 36.3166 44.5616C34.7989 45.7757 33.7457 47.4755 33.3341 49.375C33.3188 49.4498 33.3201 49.5271 33.338 49.6013C33.3559 49.6756 33.3899 49.745 33.4376 49.8046C33.4854 49.8643 33.5456 49.9127 33.6141 49.9464C33.6826 49.9802 33.7577 49.9985 33.8341 50H49.3757C49.5333 49.9923 49.6821 49.9253 49.7924 49.8125C49.8233 49.7401 49.8393 49.6621 49.8393 49.5833C49.8393 49.5046 49.8233 49.4266 49.7924 49.3542C49.3844 47.4933 48.3602 45.8246 46.8855 44.6184C45.4109 43.4122 43.5722 42.7392 41.6674 42.7083ZM36.5216 35.4167C36.5216 36.798 37.0703 38.1228 38.047 39.0995C39.0238 40.0763 40.3486 40.625 41.7299 40.625C43.1112 40.625 44.436 40.0763 45.4127 39.0995C46.3895 38.1228 46.9382 36.798 46.9382 35.4167C46.9382 34.0353 46.3895 32.7106 45.4127 31.7338C44.436 30.7571 43.1112 30.2083 41.7299 30.2083C40.3486 30.2083 39.0238 30.7571 38.047 31.7338C37.0703 32.7106 36.5216 34.0353 36.5216 35.4167ZM8.33406 42.7083C6.39053 42.693 4.50099 43.3474 2.9833 44.5616C1.46561 45.7757 0.412362 47.4755 0.000725269 49.375C-0.0296971 49.4439 -0.0454102 49.5184 -0.0454102 49.5938C-0.0454102 49.6691 -0.0296971 49.7436 0.000725269 49.8125C0.0679602 49.9103 0.166567 49.9822 0.280223 50.0163C0.39388 50.0504 0.515772 50.0446 0.625725 50H16.1466C16.2269 50.0024 16.3066 49.9861 16.3796 49.9525C16.4526 49.9189 16.5168 49.8689 16.5673 49.8063C16.6177 49.7438 16.653 49.6704 16.6704 49.592C16.6877 49.5136 16.6867 49.4322 16.6674 49.3542C16.248 47.4603 15.192 45.7675 13.6755 44.5581C12.159 43.3487 10.2737 42.6958 8.33406 42.7083ZM3.27156 35.4167C3.27156 36.798 3.82029 38.1228 4.79704 39.0995C5.7738 40.0763 7.09856 40.625 8.47989 40.625C9.86123 40.625 11.186 40.0763 12.1627 39.0995C13.1395 38.1228 13.6882 36.798 13.6882 35.4167C13.6882 34.0353 13.1395 32.7106 12.1627 31.7338C11.186 30.7571 9.86123 30.2083 8.47989 30.2083C7.09856 30.2083 5.7738 30.7571 4.79704 31.7338C3.82029 32.7106 3.27156 34.0353 3.27156 35.4167Z" fill="#30B33D"/>
</svg>
