<svg width="50" height="39" viewBox="0 0 50 39" fill="none" xmlns="http://www.w3.org/2000/svg">
<path fill-rule="evenodd" clip-rule="evenodd" d="M0 5C0 2.08929 2.53214 0 5.30357 0H35.2179C37.9929 0 40.525 2.08929 40.525 5V24.2714C40.525 27.1821 37.9893 29.2714 35.2179 29.2714H5.30357C2.53571 29.2679 0 27.1786 0 24.2679V5ZM14.8 14.6357C14.7814 13.9066 14.9089 13.1812 15.175 12.5021C15.4411 11.8231 15.8405 11.2042 16.3496 10.6819C16.8587 10.1596 17.4672 9.74456 18.1392 9.46116C18.8112 9.17775 19.5332 9.03174 20.2625 9.03174C20.9918 9.03174 21.7138 9.17775 22.3858 9.46116C23.0578 9.74456 23.6663 10.1596 24.1754 10.6819C24.6845 11.2042 25.0839 11.8231 25.35 12.5021C25.6161 13.1812 25.7436 13.9066 25.725 14.6357C25.725 16.0849 25.1493 17.4748 24.1245 18.4995C23.0998 19.5243 21.7099 20.1 20.2607 20.1C18.8115 20.1 17.4216 19.5243 16.3969 18.4995C15.3721 17.4748 14.8 16.0849 14.8 14.6357ZM4.80714 14.2857C4.80714 13.5753 5.08935 12.894 5.59168 12.3917C6.09401 11.8893 6.77531 11.6071 7.48571 11.6071C8.19612 11.6071 8.87742 11.8893 9.37975 12.3917C9.88208 12.894 10.1643 13.5753 10.1643 14.2857C10.1643 14.9961 9.88208 15.6774 9.37975 16.1798C8.87742 16.6821 8.19612 16.9643 7.48571 16.9643C6.77531 16.9643 6.09401 16.6821 5.59168 16.1798C5.08935 15.6774 4.80714 14.9961 4.80714 14.2857ZM33.0357 11.6071C32.3253 11.6071 31.644 11.8893 31.1417 12.3917C30.6394 12.894 30.3571 13.5753 30.3571 14.2857C30.3571 14.9961 30.6394 15.6774 31.1417 16.1798C31.644 16.6821 32.3253 16.9643 33.0357 16.9643C33.7461 16.9643 34.4274 16.6821 34.9298 16.1798C35.4321 15.6774 35.7143 14.9961 35.7143 14.2857C35.7143 13.5753 35.4321 12.894 34.9298 12.3917C34.4274 11.8893 33.7461 11.6071 33.0357 11.6071ZM49.8786 14.6357C49.8786 13.9253 49.5964 13.244 49.094 12.7417C48.5917 12.2393 47.9104 11.9571 47.2 11.9571C46.4896 11.9571 45.8083 12.2393 45.306 12.7417C44.8036 13.244 44.5214 13.9253 44.5214 14.6357V32.4929C44.5214 32.7297 44.4274 32.9568 44.2599 33.1242C44.0925 33.2916 43.8654 33.3857 43.6286 33.3857H11.4857C11.134 33.3857 10.7857 33.455 10.4607 33.5896C10.1357 33.7242 9.84041 33.9215 9.59168 34.1703C9.34295 34.419 9.14565 34.7143 9.01104 35.0392C8.87643 35.3642 8.80714 35.7125 8.80714 36.0643C8.80714 36.416 8.87643 36.7644 9.01104 37.0893C9.14565 37.4143 9.34295 37.7096 9.59168 37.9583C9.84041 38.2071 10.1357 38.4044 10.4607 38.539C10.7857 38.6736 11.134 38.7429 11.4857 38.7429H43.6286C45.2862 38.7429 46.8759 38.0844 48.048 36.9123C49.2201 35.7402 49.8786 34.1505 49.8786 32.4929V14.6357Z" fill="#30B33D"/>
</svg>
