<svg width="28" height="28" viewBox="0 0 28 28" fill="none" xmlns="http://www.w3.org/2000/svg">
<path d="M5.83333 16.0584C5.83333 15.0493 5.83333 14.5448 6.05499 14.114C6.27666 13.6833 6.68723 13.39 7.50838 12.8035L12.8375 8.99697C13.3989 8.59601 13.6795 8.39553 14 8.39553C14.3205 8.39553 14.6011 8.59601 15.1625 8.99697L20.4916 12.8035C21.3128 13.39 21.7233 13.6833 21.945 14.114C22.1667 14.5448 22.1667 15.0493 22.1667 16.0584V22.5C22.1667 23.4428 22.1667 23.9142 21.8738 24.2071C21.5809 24.5 21.1095 24.5 20.1667 24.5H7.83333C6.89052 24.5 6.41911 24.5 6.12622 24.2071C5.83333 23.9142 5.83333 23.4428 5.83333 22.5V16.0584Z" fill="#30B33D"/>
<path d="M3.5 14.5532C3.5 14.8201 3.5 14.9535 3.5841 14.9947C3.66819 15.0358 3.77352 14.9539 3.98418 14.79L12.7721 7.95498C13.362 7.49621 13.6569 7.26682 14 7.26682C14.3431 7.26682 14.638 7.49621 15.2279 7.95498L24.0158 14.79C24.2265 14.9539 24.3318 15.0358 24.4159 14.9947C24.5 14.9535 24.5 14.8201 24.5 14.5532V13.8115C24.5 13.3311 24.5 13.0909 24.3983 12.883C24.2966 12.6751 24.107 12.5277 23.7279 12.2328L15.2279 5.62165C14.638 5.16287 14.3431 4.93349 14 4.93349C13.6569 4.93349 13.362 5.16287 12.7721 5.62164L4.27212 12.2328C3.89295 12.5277 3.70337 12.6751 3.60168 12.883C3.5 13.0909 3.5 13.3311 3.5 13.8115V14.5532Z" fill="#30B33D"/>
<path d="M14.9167 17.5H13.0833C11.9788 17.5 11.0833 18.3954 11.0833 19.5V24.35C11.0833 24.4328 11.1505 24.5 11.2333 24.5H16.7667C16.8495 24.5 16.9167 24.4328 16.9167 24.35V19.5C16.9167 18.3954 16.0212 17.5 14.9167 17.5Z" fill="#ECECEC"/>
<rect x="18.6667" y="5.83337" width="2.33333" height="4.66667" rx="0.5" fill="#30B33D"/>
</svg>
