<svg width="28" height="28" viewBox="0 0 28 28" fill="none" xmlns="http://www.w3.org/2000/svg">
<path d="M7.88594 21.5643C6.98907 20.9081 6.30657 19.7465 6.30657 18.5522C6.30657 16.5659 7.92313 14.9493 9.90938 14.9493C11.2853 14.9493 12.1756 15.4262 12.8691 16.4259C13.1338 16.8087 13.4728 16.7409 13.4794 16.334L13.4466 15.2009C13.4466 13.2781 12.0072 12.4075 9.31001 12.4075H7.64532C5.31782 12.4075 3.85001 13.4378 3.85001 15.4547V20.9518C3.85001 21.7897 4.53032 22.47 5.36813 22.47H6.84251C6.84688 22.4656 6.84907 22.4612 6.85344 22.4568C7.11594 22.12 7.88594 21.5643 7.88594 21.5643Z" fill="#C5C5C5"/>
<path d="M8.65156 11.6157C10.4903 11.6157 11.9809 10.125 11.9809 8.28628C11.9809 6.44752 10.4903 4.95691 8.65156 4.95691C6.8128 4.95691 5.32219 6.44752 5.32219 8.28628C5.32219 10.125 6.8128 11.6157 8.65156 11.6157Z" fill="#C5C5C5"/>
<path d="M19.7159 12.4272H18.3312C16.3297 12.4272 14.7044 13.7463 14.7044 16.3319V16.3822C14.7044 16.5747 14.7416 16.6797 14.805 16.6994C14.9144 16.7366 15.0172 16.5966 15.1134 16.4435C15.7653 15.4153 16.6228 14.9494 17.9987 14.9494C19.985 14.9494 21.6016 16.566 21.6016 18.5522C21.6016 19.7466 21.0153 20.8053 20.1162 21.4594C20.1162 21.4594 20.8644 22.0369 21.2231 22.4482C21.2297 22.4547 21.2341 22.4613 21.2406 22.4678H22.2666C23.1044 22.4678 23.7847 21.7875 23.7847 20.9497V16.0541C23.7891 13.5866 21.7197 12.4272 19.7159 12.4272ZM23.1569 10.045C22.7259 9.18096 22.7391 8.40221 22.5116 7.59065L22.505 7.59721C22.1878 6.08784 20.8512 4.95471 19.2478 4.95471C17.6466 4.95471 16.31 6.08565 15.9906 7.59284V7.59065C15.7631 8.40002 15.7784 9.17877 15.3453 10.045C14.98 10.7778 14.6081 10.7319 14.6081 11.1235C14.6081 11.515 15.1703 11.8213 15.8659 11.9088C16.4281 11.981 17.0341 11.9306 17.5022 11.7469C16.7322 11.1825 16.3603 10.3403 16.2619 9.9444C16.2006 9.6994 16.135 9.46753 16.2772 9.43909C16.4566 9.4019 16.4106 9.73221 16.7803 10.2178C17.5306 11.1978 18.1475 11.5413 19.2391 11.5435C20.3306 11.5413 20.9475 11.1978 21.6978 10.2178C22.0697 9.7344 22.0194 9.44346 22.2009 9.43909C22.3716 9.4369 22.2819 9.73877 22.2206 9.98377C22.1222 10.3753 21.7547 11.1956 20.9956 11.7469C21.4637 11.9306 22.0697 11.981 22.6341 11.9088C23.3297 11.8191 23.8919 11.515 23.8919 11.1235C23.8919 10.7319 23.5222 10.7778 23.1569 10.045Z" fill="#C5C5C5"/>
<path d="M17.9638 21.2363C19.4461 21.2363 20.6478 20.0346 20.6478 18.5522C20.6478 17.0699 19.4461 15.8682 17.9638 15.8682C16.4814 15.8682 15.2797 17.0699 15.2797 18.5522C15.2797 20.0346 16.4814 21.2363 17.9638 21.2363Z" fill="#C5C5C5"/>
<path d="M15.2972 24.2309C15.0784 24.2309 14.9144 24.0231 14.9712 23.8131C15.2687 22.7259 16.4916 21.8422 17.9572 21.8422C19.4294 21.8422 20.6544 22.7019 20.9475 23.8153C21.0022 24.0253 20.8403 24.2331 20.6216 24.2331C20.6216 24.2309 15.2972 24.2309 15.2972 24.2309Z" fill="#C5C5C5"/>
<path d="M9.9575 21.2363C11.4399 21.2363 12.6416 20.0346 12.6416 18.5522C12.6416 17.0699 11.4399 15.8682 9.9575 15.8682C8.47513 15.8682 7.27344 17.0699 7.27344 18.5522C7.27344 20.0346 8.47513 21.2363 9.9575 21.2363Z" fill="#C5C5C5"/>
<path d="M7.29095 24.2309C7.0722 24.2309 6.90813 24.0231 6.96501 23.8131C7.26251 22.7259 8.48532 21.8422 9.95095 21.8422C11.4231 21.8422 12.6481 22.7019 12.9413 23.8153C12.9959 24.0253 12.8341 24.2331 12.6153 24.2331C12.6153 24.2309 7.29095 24.2309 7.29095 24.2309ZM15.225 20.7462C15.0413 20.5384 14.5906 20.4356 14.2516 20.7091C14.1247 20.8119 13.9563 21.0306 13.9563 21.0306C13.9563 21.0306 13.7878 20.8119 13.6609 20.7091C13.3219 20.4356 12.8713 20.5384 12.6875 20.7462C12.3966 21.0766 12.4425 21.5097 12.8078 21.9581C13.3088 22.5728 13.9563 23.1591 13.9563 23.1612C13.9563 23.1612 14.6038 22.575 15.1047 21.9581C15.47 21.5097 15.5159 21.0766 15.225 20.7462Z" fill="#C5C5C5"/>
</svg>
