<svg width="40" height="40" viewBox="0 0 40 40" fill="none" xmlns="http://www.w3.org/2000/svg">
<path d="M11.2656 30.8063C9.98437 29.8688 9.00937 28.2095 9.00937 26.5032C9.00937 23.6657 11.3187 21.3563 14.1562 21.3563C16.1219 21.3563 17.3938 22.0376 18.3844 23.4657C18.7625 24.0126 19.2469 23.9157 19.2562 23.3345L19.2094 21.7157C19.2094 18.9688 17.1531 17.7251 13.3 17.7251H10.9219C7.59687 17.7251 5.5 19.197 5.5 22.0782V29.9313C5.5 31.1282 6.47188 32.1001 7.66875 32.1001H9.775C9.78125 32.0938 9.78437 32.0876 9.79062 32.0813C10.1656 31.6001 11.2656 30.8063 11.2656 30.8063Z" fill="white"/>
<path d="M12.3593 16.5938C14.9861 16.5938 17.1155 14.4644 17.1155 11.8375C17.1155 9.21074 14.9861 7.0813 12.3593 7.0813C9.73247 7.0813 7.60303 9.21074 7.60303 11.8375C7.60303 14.4644 9.73247 16.5938 12.3593 16.5938Z" fill="white"/>
<path d="M28.1655 17.7531H26.1874C23.328 17.7531 21.0062 19.6375 21.0062 23.3313V23.4031C21.0062 23.6781 21.0593 23.8281 21.1499 23.8562C21.3062 23.9094 21.453 23.7094 21.5905 23.4906C22.5218 22.0219 23.7468 21.3562 25.7124 21.3562C28.5499 21.3562 30.8593 23.6656 30.8593 26.5031C30.8593 28.2094 30.0218 29.7219 28.7374 30.6562C28.7374 30.6562 29.8062 31.4813 30.3187 32.0688C30.328 32.0781 30.3343 32.0875 30.3437 32.0969H31.8093C33.0062 32.0969 33.978 31.125 33.978 29.9281V22.9344C33.9843 19.4094 31.028 17.7531 28.1655 17.7531ZM33.0812 14.35C32.4655 13.1156 32.4843 12.0031 32.1593 10.8438L32.1499 10.8531C31.6968 8.69687 29.7874 7.07812 27.4968 7.07812C25.2093 7.07812 23.2999 8.69375 22.8437 10.8469V10.8438C22.5187 12 22.5405 13.1125 21.9218 14.35C21.3999 15.3969 20.8687 15.3312 20.8687 15.8906C20.8687 16.45 21.6718 16.8875 22.6655 17.0125C23.4687 17.1156 24.3343 17.0438 25.003 16.7812C23.903 15.975 23.3718 14.7719 23.2312 14.2062C23.1437 13.8562 23.0499 13.525 23.253 13.4844C23.5093 13.4313 23.4437 13.9031 23.9718 14.5969C25.0437 15.9969 25.9249 16.4875 27.4843 16.4906C29.0437 16.4875 29.9249 15.9969 30.9968 14.5969C31.528 13.9062 31.4562 13.4906 31.7155 13.4844C31.9593 13.4813 31.8312 13.9125 31.7437 14.2625C31.603 14.8219 31.078 15.9938 29.9937 16.7812C30.6624 17.0438 31.528 17.1156 32.3343 17.0125C33.328 16.8844 34.1312 16.45 34.1312 15.8906C34.1312 15.3312 33.603 15.3969 33.0812 14.35Z" fill="white"/>
<path d="M25.6625 30.3375C27.7802 30.3375 29.4969 28.6207 29.4969 26.5031C29.4969 24.3854 27.7802 22.6687 25.6625 22.6687C23.5448 22.6687 21.8281 24.3854 21.8281 26.5031C21.8281 28.6207 23.5448 30.3375 25.6625 30.3375Z" fill="white"/>
<path d="M21.8532 34.6156C21.5407 34.6156 21.3063 34.3188 21.3876 34.0188C21.8126 32.4656 23.5594 31.2031 25.6532 31.2031C27.7563 31.2031 29.5063 32.4313 29.9251 34.0219C30.0032 34.3219 29.7719 34.6188 29.4594 34.6188C29.4594 34.6156 21.8532 34.6156 21.8532 34.6156Z" fill="white"/>
<path d="M14.225 30.3375C16.3427 30.3375 18.0594 28.6207 18.0594 26.5031C18.0594 24.3854 16.3427 22.6687 14.225 22.6687C12.1073 22.6687 10.3906 24.3854 10.3906 26.5031C10.3906 28.6207 12.1073 30.3375 14.225 30.3375Z" fill="white"/>
<path d="M10.4157 34.6157C10.1032 34.6157 9.86882 34.3188 9.95007 34.0188C10.3751 32.4657 12.1219 31.2032 14.2157 31.2032C16.3188 31.2032 18.0688 32.4313 18.4876 34.022C18.5657 34.322 18.3344 34.6188 18.0219 34.6188C18.0219 34.6157 10.4157 34.6157 10.4157 34.6157ZM21.7501 29.6376C21.4876 29.3407 20.8438 29.1938 20.3594 29.5845C20.1782 29.7313 19.9376 30.0438 19.9376 30.0438C19.9376 30.0438 19.6969 29.7313 19.5157 29.5845C19.0313 29.1938 18.3876 29.3407 18.1251 29.6376C17.7094 30.1095 17.7751 30.7282 18.2969 31.3688C19.0126 32.247 19.9376 33.0845 19.9376 33.0876C19.9376 33.0876 20.8626 32.2501 21.5782 31.3688C22.1001 30.7282 22.1657 30.1095 21.7501 29.6376Z" fill="white"/>
</svg>
