<svg width="40" height="40" viewBox="0 0 40 40" fill="none" xmlns="http://www.w3.org/2000/svg">
<path d="M8.33337 22.0586C8.33337 21.0494 8.33337 20.5449 8.55504 20.1142C8.7767 19.6834 9.18728 19.3902 10.0084 18.8036L18.8376 12.4971C19.3989 12.0961 19.6796 11.8957 20 11.8957C20.3205 11.8957 20.6012 12.0961 21.1625 12.4971L29.9917 18.8036C30.8128 19.3902 31.2234 19.6834 31.445 20.1142C31.6667 20.5449 31.6667 21.0494 31.6667 22.0586V33.0001C31.6667 33.9429 31.6667 34.4143 31.3738 34.7072C31.0809 35.0001 30.6095 35.0001 29.6667 35.0001H10.3334C9.39057 35.0001 8.91916 35.0001 8.62627 34.7072C8.33337 34.4143 8.33337 33.9429 8.33337 33.0001V22.0586Z" fill="white"/>
<path d="M5 21.0534C5 21.3202 5 21.4537 5.0841 21.4948C5.16819 21.5359 5.27352 21.454 5.48418 21.2902L18.7721 10.9551C19.362 10.4963 19.6569 10.2669 20 10.2669C20.3431 10.2669 20.638 10.4963 21.2279 10.9551L34.5158 21.2902C34.7265 21.454 34.8318 21.5359 34.9159 21.4948C35 21.4537 35 21.3202 35 21.0534V19.3116C35 18.8312 35 18.5911 34.8983 18.3831C34.7966 18.1752 34.607 18.0278 34.2279 17.7329L21.2279 7.62177C20.638 7.163 20.3431 6.93361 20 6.93361C19.6569 6.93361 19.362 7.163 18.7721 7.62177L5.77212 17.7329C5.39295 18.0278 5.20337 18.1752 5.10168 18.3831C5 18.5911 5 18.8312 5 19.3116V21.0534Z" fill="white"/>
<path d="M22.1667 25H17.8334C16.7288 25 15.8334 25.8954 15.8334 27V34.85C15.8334 34.9328 15.9005 35 15.9834 35H24.0167C24.0996 35 24.1667 34.9328 24.1667 34.85V27C24.1667 25.8954 23.2713 25 22.1667 25Z" fill="#9CE8A4"/>
<rect x="26.6666" y="8.33325" width="3.33333" height="6.66667" rx="0.5" fill="white"/>
</svg>
