<svg width="40" height="40" viewBox="0 0 40 40" fill="none" xmlns="http://www.w3.org/2000/svg">
<path fill-rule="evenodd" clip-rule="evenodd" d="M2.5 10.625C2.5 8.89833 3.9 7.5 5.625 7.5H34.375C36.1 7.5 37.5 8.9 37.5 10.625V15.6683C37.5001 15.8879 37.4424 16.1036 37.3327 16.2938C37.223 16.484 37.0651 16.6419 36.875 16.7517C36.3042 17.0804 35.83 17.5537 35.5003 18.1239C35.1706 18.6942 34.997 19.3413 34.997 20C34.997 20.6587 35.1706 21.3058 35.5003 21.8761C35.83 22.4463 36.3042 22.9196 36.875 23.2483C37.0651 23.3581 37.223 23.516 37.3327 23.7062C37.4424 23.8964 37.5001 24.1121 37.5 24.3317V29.375C37.5 31.1 36.1 32.5 34.375 32.5H5.625C4.7962 32.5 4.00134 32.1708 3.41529 31.5847C2.82924 30.9987 2.5 30.2038 2.5 29.375V24.3317C2.49969 24.1123 2.55713 23.8967 2.66655 23.7065C2.77596 23.5163 2.9335 23.3583 3.12333 23.2483C3.69418 22.9196 4.16832 22.4463 4.49801 21.8761C4.8277 21.3058 5.00128 20.6587 5.00128 20C5.00128 19.3413 4.8277 18.6942 4.49801 18.1239C4.16832 17.5537 3.69418 17.0804 3.12333 16.7517C2.9335 16.6417 2.77596 16.4837 2.66655 16.2935C2.55713 16.1033 2.49969 15.8877 2.5 15.6683V10.625ZM27.5 8.75C27.8315 8.75 28.1495 8.8817 28.3839 9.11612C28.6183 9.35054 28.75 9.66848 28.75 10V11.25C28.75 11.5815 28.6183 11.8995 28.3839 12.1339C28.1495 12.3683 27.8315 12.5 27.5 12.5C27.1685 12.5 26.8505 12.3683 26.6161 12.1339C26.3817 11.8995 26.25 11.5815 26.25 11.25V10C26.25 9.66848 26.3817 9.35054 26.6161 9.11612C26.8505 8.8817 27.1685 8.75 27.5 8.75ZM28.75 16.25C28.75 15.9185 28.6183 15.6005 28.3839 15.3661C28.1495 15.1317 27.8315 15 27.5 15C27.1685 15 26.8505 15.1317 26.6161 15.3661C26.3817 15.6005 26.25 15.9185 26.25 16.25V17.5C26.25 17.8315 26.3817 18.1495 26.6161 18.3839C26.8505 18.6183 27.1685 18.75 27.5 18.75C27.8315 18.75 28.1495 18.6183 28.3839 18.3839C28.6183 18.1495 28.75 17.8315 28.75 17.5V16.25ZM27.5 21.25C27.8315 21.25 28.1495 21.3817 28.3839 21.6161C28.6183 21.8505 28.75 22.1685 28.75 22.5V23.75C28.75 24.0815 28.6183 24.3995 28.3839 24.6339C28.1495 24.8683 27.8315 25 27.5 25C27.1685 25 26.8505 24.8683 26.6161 24.6339C26.3817 24.3995 26.25 24.0815 26.25 23.75V22.5C26.25 22.1685 26.3817 21.8505 26.6161 21.6161C26.8505 21.3817 27.1685 21.25 27.5 21.25ZM28.75 28.75C28.75 28.4185 28.6183 28.1005 28.3839 27.8661C28.1495 27.6317 27.8315 27.5 27.5 27.5C27.1685 27.5 26.8505 27.6317 26.6161 27.8661C26.3817 28.1005 26.25 28.4185 26.25 28.75V30C26.25 30.3315 26.3817 30.6495 26.6161 30.8839C26.8505 31.1183 27.1685 31.25 27.5 31.25C27.8315 31.25 28.1495 31.1183 28.3839 30.8839C28.6183 30.6495 28.75 30.3315 28.75 30V28.75ZM10 20C10 19.6685 10.1317 19.3505 10.3661 19.1161C10.6005 18.8817 10.9185 18.75 11.25 18.75H20C20.3315 18.75 20.6495 18.8817 20.8839 19.1161C21.1183 19.3505 21.25 19.6685 21.25 20C21.25 20.3315 21.1183 20.6495 20.8839 20.8839C20.6495 21.1183 20.3315 21.25 20 21.25H11.25C10.9185 21.25 10.6005 21.1183 10.3661 20.8839C10.1317 20.6495 10 20.3315 10 20ZM11.25 23.75C10.9185 23.75 10.6005 23.8817 10.3661 24.1161C10.1317 24.3505 10 24.6685 10 25C10 25.3315 10.1317 25.6495 10.3661 25.8839C10.6005 26.1183 10.9185 26.25 11.25 26.25H16.25C16.5815 26.25 16.8995 26.1183 17.1339 25.8839C17.3683 25.6495 17.5 25.3315 17.5 25C17.5 24.6685 17.3683 24.3505 17.1339 24.1161C16.8995 23.8817 16.5815 23.75 16.25 23.75H11.25Z" fill="white"/>
</svg>
