<svg width="24" height="24" viewBox="0 0 24 24" fill="none" xmlns="http://www.w3.org/2000/svg">
<path d="M22.5264 8.20667L20.8848 2.73467C20.394 1.09867 19.0224 0 17.4708 0H6.5292C4.9776 0 3.606 1.09867 3.1152 2.73467L1.4736 8.20667C0.6084 8.60933 0 9.55867 0 10.6667V17.3333C0 18.3173 0.4848 19.168 1.2 19.6307V21.196V22.6667C1.2 23.404 1.7364 24 2.4 24H3.6C4.2636 24 4.8 23.404 4.8 22.6667V20H19.2V22.6667C19.2 23.404 19.7364 24 20.4 24H21.6C22.2636 24 22.8 23.404 22.8 22.6667V19.6307C23.5152 19.168 24 18.3187 24 17.3333V10.6667C24 9.55867 23.3916 8.60933 22.5264 8.20667ZM6.5292 2.66667H17.4696C17.9868 2.66667 18.4452 3.032 18.6084 3.57867L19.9356 8H18.9828H5.0172H4.0644L5.3904 3.57867C5.5548 3.032 6.0132 2.66667 6.5292 2.66667ZM4.2 16C3.2064 16 2.4 15.104 2.4 14C2.4 12.896 3.2064 12 4.2 12C5.1936 12 6 12.896 6 14C6 15.104 5.1936 16 4.2 16ZM19.8 16C18.8064 16 18 15.104 18 14C18 12.896 18.8064 12 19.8 12C20.7936 12 21.6 12.896 21.6 14C21.6 15.104 20.7936 16 19.8 16Z" fill="white"/>
</svg>
