<svg width="25" height="35" viewBox="0 0 25 35" fill="none" xmlns="http://www.w3.org/2000/svg">
<path d="M25 3.75C25 2.75544 24.6049 1.80161 23.9017 1.09835C23.1984 0.395088 22.2446 0 21.25 0H3.75C2.75544 0 1.80161 0.395088 1.09835 1.09835C0.395088 1.80161 0 2.75544 0 3.75V31.25C0 32.2446 0.395088 33.1984 1.09835 33.9016C1.80161 34.6049 2.75544 35 3.75 35H21.25C22.2446 35 23.1984 34.6049 23.9017 33.9016C24.6049 33.1984 25 32.2446 25 31.25V3.75ZM8.75 6.25C8.75 5.91848 8.8817 5.60054 9.11612 5.36612C9.35054 5.1317 9.66848 5 10 5H15C15.3315 5 15.6495 5.1317 15.8839 5.36612C16.1183 5.60054 16.25 5.91848 16.25 6.25C16.25 6.58152 16.1183 6.89946 15.8839 7.13388C15.6495 7.3683 15.3315 7.5 15 7.5H10C9.66848 7.5 9.35054 7.3683 9.11612 7.13388C8.8817 6.89946 8.75 6.58152 8.75 6.25ZM7.5 15C7.5 13.6739 8.02678 12.4021 8.96447 11.4645C9.90215 10.5268 11.1739 10 12.5 10C13.8261 10 15.0979 10.5268 16.0355 11.4645C16.9732 12.4021 17.5 13.6739 17.5 15C17.5 16.3261 16.9732 17.5979 16.0355 18.5355C15.0979 19.4732 13.8261 20 12.5 20C11.1739 20 9.90215 19.4732 8.96447 18.5355C8.02678 17.5979 7.5 16.3261 7.5 15ZM6.7375 22.5H18.2625C19.09 22.5 19.9875 23.095 20.0625 24.1425C20.12 24.93 20.05 26.4475 18.9125 27.775C17.76 29.125 15.74 30 12.5 30C9.26 30 7.24 29.125 6.085 27.775C4.95 26.4475 4.88 24.93 4.935 24.1425C5.01 23.0925 5.91 22.5 6.7375 22.5Z" fill="white"/>
</svg>
